<mxfile host="app.diagrams.net" agent="Mozilla/5.0 (Windows NT 10.0; Win64; x64) AppleWebKit/537.36 (KHTML, like Gecko) Chrome/127.0.0.0 Safari/537.36 Edg/127.0.0.0" version="24.7.7">
  <diagram name="第 1 页" id="54Ioh9Ds5pnt8WXAeM8K">
    <mxGraphModel dx="2254" dy="1648" grid="1" gridSize="10" guides="1" tooltips="1" connect="1" arrows="1" fold="1" page="1" pageScale="1" pageWidth="600" pageHeight="550" math="0" shadow="0">
      <root>
        <mxCell id="0" />
        <mxCell id="1" parent="0" />
        <mxCell id="1KDJxvMvkZy1IDM3iAfp-3" value="" style="rounded=0;whiteSpace=wrap;html=1;dashed=1;strokeWidth=3;fillColor=#bac8d3;strokeColor=#23445d;shadow=1;" parent="1" vertex="1">
          <mxGeometry x="1058" y="56" width="100" height="230" as="geometry" />
        </mxCell>
        <mxCell id="1KDJxvMvkZy1IDM3iAfp-4" value="" style="rounded=0;whiteSpace=wrap;html=1;dashed=1;strokeWidth=3;fillColor=#ffff88;strokeColor=#36393d;shadow=1;" parent="1" vertex="1">
          <mxGeometry x="900" y="172" width="140" height="324" as="geometry" />
        </mxCell>
        <mxCell id="1KDJxvMvkZy1IDM3iAfp-5" value="" style="rounded=0;whiteSpace=wrap;html=1;dashed=1;strokeWidth=3;fillColor=#cdeb8b;strokeColor=#36393d;shadow=1;" parent="1" vertex="1">
          <mxGeometry x="640" y="172" width="250" height="324" as="geometry" />
        </mxCell>
        <mxCell id="1KDJxvMvkZy1IDM3iAfp-6" value="" style="group;shadow=1;" parent="1" vertex="1" connectable="0">
          <mxGeometry x="655" y="36" width="500" height="463" as="geometry" />
        </mxCell>
        <mxCell id="1KDJxvMvkZy1IDM3iAfp-7" value="" style="rounded=0;whiteSpace=wrap;html=1;dashed=1;strokeWidth=3;fillColor=#b1ddf0;strokeColor=#10739e;shadow=1;" parent="1KDJxvMvkZy1IDM3iAfp-6" vertex="1">
          <mxGeometry x="318.5" y="25" width="77" height="90" as="geometry" />
        </mxCell>
        <mxCell id="1KDJxvMvkZy1IDM3iAfp-8" value="" style="rounded=0;whiteSpace=wrap;html=1;dashed=1;strokeWidth=3;fillColor=#b0e3e6;strokeColor=#0e8088;shadow=1;" parent="1KDJxvMvkZy1IDM3iAfp-6" vertex="1">
          <mxGeometry x="181" y="30" width="80" height="80" as="geometry" />
        </mxCell>
        <mxCell id="1KDJxvMvkZy1IDM3iAfp-9" value="" style="verticalLabelPosition=bottom;shadow=1;dashed=0;align=center;html=1;verticalAlign=top;shape=mxgraph.electrical.logic_gates.logic_gate;operation=xor;negating=1;negSize=0.15;strokeWidth=3;direction=south;" parent="1KDJxvMvkZy1IDM3iAfp-6" vertex="1">
          <mxGeometry x="131" y="240" width="60" height="100" as="geometry" />
        </mxCell>
        <mxCell id="1KDJxvMvkZy1IDM3iAfp-10" value="" style="verticalLabelPosition=bottom;shadow=1;dashed=0;align=center;html=1;verticalAlign=top;shape=mxgraph.electrical.logic_gates.logic_gate;operation=and;negating=1;negSize=0.15;strokeWidth=3;direction=south;" parent="1KDJxvMvkZy1IDM3iAfp-6" vertex="1">
          <mxGeometry y="240" width="60" height="100" as="geometry" />
        </mxCell>
        <mxCell id="1KDJxvMvkZy1IDM3iAfp-11" value="" style="verticalLabelPosition=bottom;shadow=1;dashed=0;align=center;html=1;verticalAlign=top;shape=mxgraph.electrical.logic_gates.logic_gate;operation=and;negating=1;negSize=0.15;strokeWidth=3;direction=south;" parent="1KDJxvMvkZy1IDM3iAfp-6" vertex="1">
          <mxGeometry x="52" y="134" width="60" height="100" as="geometry" />
        </mxCell>
        <mxCell id="1KDJxvMvkZy1IDM3iAfp-12" value="" style="endArrow=none;html=1;rounded=0;entryX=1;entryY=0.5;entryDx=0;entryDy=0;entryPerimeter=0;strokeWidth=3;shadow=1;" parent="1KDJxvMvkZy1IDM3iAfp-6" target="1KDJxvMvkZy1IDM3iAfp-11" edge="1">
          <mxGeometry width="50" height="50" relative="1" as="geometry">
            <mxPoint x="82" y="240" as="sourcePoint" />
            <mxPoint x="82" y="329" as="targetPoint" />
          </mxGeometry>
        </mxCell>
        <mxCell id="1KDJxvMvkZy1IDM3iAfp-13" value="" style="verticalLabelPosition=bottom;shadow=1;dashed=0;align=center;html=1;verticalAlign=top;shape=mxgraph.electrical.logic_gates.logic_gate;operation=xor;negating=1;negSize=0.15;strokeWidth=3;direction=south;" parent="1KDJxvMvkZy1IDM3iAfp-6" vertex="1">
          <mxGeometry x="59" y="362" width="60" height="100" as="geometry" />
        </mxCell>
        <mxCell id="1KDJxvMvkZy1IDM3iAfp-14" value="" style="endArrow=none;html=1;rounded=0;strokeWidth=3;entryX=0;entryY=0.75;entryDx=0;entryDy=0;entryPerimeter=0;edgeStyle=orthogonalEdgeStyle;shadow=1;" parent="1KDJxvMvkZy1IDM3iAfp-6" target="1KDJxvMvkZy1IDM3iAfp-10" edge="1">
          <mxGeometry width="50" height="50" relative="1" as="geometry">
            <mxPoint x="15" as="sourcePoint" />
            <mxPoint x="-9" y="238" as="targetPoint" />
            <Array as="points">
              <mxPoint x="15" y="8" />
            </Array>
          </mxGeometry>
        </mxCell>
        <mxCell id="1KDJxvMvkZy1IDM3iAfp-15" value="" style="endArrow=none;html=1;rounded=0;strokeWidth=3;entryX=0;entryY=0.75;entryDx=0;entryDy=0;entryPerimeter=0;edgeStyle=orthogonalEdgeStyle;shadow=1;" parent="1KDJxvMvkZy1IDM3iAfp-6" target="1KDJxvMvkZy1IDM3iAfp-11" edge="1">
          <mxGeometry width="50" height="50" relative="1" as="geometry">
            <mxPoint x="67" as="sourcePoint" />
            <mxPoint x="72" y="119" as="targetPoint" />
          </mxGeometry>
        </mxCell>
        <mxCell id="1KDJxvMvkZy1IDM3iAfp-16" value="" style="endArrow=none;html=1;rounded=0;strokeWidth=3;entryX=0;entryY=0.25;entryDx=0;entryDy=0;entryPerimeter=0;edgeStyle=orthogonalEdgeStyle;shadow=1;" parent="1KDJxvMvkZy1IDM3iAfp-6" target="1KDJxvMvkZy1IDM3iAfp-11" edge="1">
          <mxGeometry width="50" height="50" relative="1" as="geometry">
            <mxPoint x="97" as="sourcePoint" />
            <mxPoint x="77" y="149" as="targetPoint" />
          </mxGeometry>
        </mxCell>
        <mxCell id="1KDJxvMvkZy1IDM3iAfp-17" value="" style="verticalLabelPosition=bottom;shadow=1;dashed=0;align=center;html=1;verticalAlign=top;shape=mxgraph.electrical.logic_gates.logic_gate;operation=and;negating=1;negSize=0.15;strokeWidth=3;direction=south;" parent="1KDJxvMvkZy1IDM3iAfp-6" vertex="1">
          <mxGeometry x="153" y="135" width="60" height="100" as="geometry" />
        </mxCell>
        <mxCell id="1KDJxvMvkZy1IDM3iAfp-18" value="" style="endArrow=none;html=1;rounded=0;strokeWidth=3;shadow=1;" parent="1KDJxvMvkZy1IDM3iAfp-6" edge="1">
          <mxGeometry width="50" height="50" relative="1" as="geometry">
            <mxPoint x="184.5" y="240" as="sourcePoint" />
            <mxPoint x="175" y="240" as="targetPoint" />
          </mxGeometry>
        </mxCell>
        <mxCell id="1KDJxvMvkZy1IDM3iAfp-19" value="" style="endArrow=none;html=1;rounded=0;strokeWidth=3;entryX=0;entryY=0.75;entryDx=0;entryDy=0;entryPerimeter=0;edgeStyle=orthogonalEdgeStyle;shadow=1;" parent="1KDJxvMvkZy1IDM3iAfp-6" target="1KDJxvMvkZy1IDM3iAfp-17" edge="1">
          <mxGeometry width="50" height="50" relative="1" as="geometry">
            <mxPoint x="168" y="40" as="sourcePoint" />
            <mxPoint x="163" y="130" as="targetPoint" />
          </mxGeometry>
        </mxCell>
        <mxCell id="1KDJxvMvkZy1IDM3iAfp-20" value="" style="verticalLabelPosition=bottom;shadow=1;dashed=0;align=center;html=1;verticalAlign=top;shape=mxgraph.electrical.logic_gates.logic_gate;operation=and;negating=1;negSize=0.15;strokeWidth=3;direction=south;" parent="1KDJxvMvkZy1IDM3iAfp-6" vertex="1">
          <mxGeometry x="191" y="20" width="60" height="100" as="geometry" />
        </mxCell>
        <mxCell id="1KDJxvMvkZy1IDM3iAfp-21" value="" style="endArrow=none;html=1;rounded=0;strokeWidth=3;entryX=0;entryY=0.25;entryDx=0;entryDy=0;entryPerimeter=0;edgeStyle=orthogonalEdgeStyle;exitX=1;exitY=0.5;exitDx=0;exitDy=0;exitPerimeter=0;shadow=1;" parent="1KDJxvMvkZy1IDM3iAfp-6" source="1KDJxvMvkZy1IDM3iAfp-20" target="1KDJxvMvkZy1IDM3iAfp-17" edge="1">
          <mxGeometry width="50" height="50" relative="1" as="geometry">
            <mxPoint x="140" y="50" as="sourcePoint" />
            <mxPoint x="140" y="140" as="targetPoint" />
          </mxGeometry>
        </mxCell>
        <mxCell id="1KDJxvMvkZy1IDM3iAfp-22" value="" style="verticalLabelPosition=bottom;shadow=1;dashed=0;align=center;html=1;verticalAlign=top;shape=mxgraph.electrical.logic_gates.logic_gate;operation=and;negating=1;negSize=0.15;strokeWidth=3;direction=south;" parent="1KDJxvMvkZy1IDM3iAfp-6" vertex="1">
          <mxGeometry x="270" y="136" width="60" height="100" as="geometry" />
        </mxCell>
        <mxCell id="1KDJxvMvkZy1IDM3iAfp-23" value="" style="endArrow=none;html=1;rounded=0;strokeWidth=3;edgeStyle=orthogonalEdgeStyle;exitX=0;exitY=0.75;exitDx=0;exitDy=0;exitPerimeter=0;shadow=1;" parent="1KDJxvMvkZy1IDM3iAfp-6" source="1KDJxvMvkZy1IDM3iAfp-22" edge="1">
          <mxGeometry width="50" height="50" relative="1" as="geometry">
            <mxPoint x="275" y="139" as="sourcePoint" />
            <mxPoint x="215" y="130" as="targetPoint" />
            <Array as="points">
              <mxPoint x="285" y="130" />
            </Array>
          </mxGeometry>
        </mxCell>
        <mxCell id="1KDJxvMvkZy1IDM3iAfp-24" value="" style="verticalLabelPosition=bottom;shadow=1;dashed=0;align=center;html=1;verticalAlign=top;shape=mxgraph.electrical.logic_gates.logic_gate;operation=xor;negating=1;negSize=0.15;strokeWidth=3;direction=south;" parent="1KDJxvMvkZy1IDM3iAfp-6" vertex="1">
          <mxGeometry x="285" y="363" width="60" height="100" as="geometry" />
        </mxCell>
        <mxCell id="1KDJxvMvkZy1IDM3iAfp-25" value="" style="endArrow=none;html=1;rounded=0;strokeWidth=3;entryX=0;entryY=0.75;entryDx=0;entryDy=0;entryPerimeter=0;edgeStyle=orthogonalEdgeStyle;exitX=1;exitY=0.5;exitDx=0;exitDy=0;exitPerimeter=0;shadow=1;" parent="1KDJxvMvkZy1IDM3iAfp-6" source="1KDJxvMvkZy1IDM3iAfp-22" target="1KDJxvMvkZy1IDM3iAfp-24" edge="1">
          <mxGeometry width="50" height="50" relative="1" as="geometry">
            <mxPoint x="280" y="220" as="sourcePoint" />
            <mxPoint x="280" y="460" as="targetPoint" />
          </mxGeometry>
        </mxCell>
        <mxCell id="1KDJxvMvkZy1IDM3iAfp-26" value="" style="endArrow=none;html=1;rounded=0;strokeWidth=3;shadow=1;" parent="1KDJxvMvkZy1IDM3iAfp-6" edge="1">
          <mxGeometry width="50" height="50" relative="1" as="geometry">
            <mxPoint x="43.5" y="239" as="sourcePoint" />
            <mxPoint x="146.5" y="239" as="targetPoint" />
          </mxGeometry>
        </mxCell>
        <mxCell id="1KDJxvMvkZy1IDM3iAfp-27" value="" style="verticalLabelPosition=bottom;shadow=1;dashed=0;align=center;html=1;verticalAlign=top;shape=mxgraph.electrical.logic_gates.logic_gate;operation=and;negating=1;negSize=0.15;strokeWidth=3;direction=south;" parent="1KDJxvMvkZy1IDM3iAfp-6" vertex="1">
          <mxGeometry x="312" y="250" width="60" height="100" as="geometry" />
        </mxCell>
        <mxCell id="1KDJxvMvkZy1IDM3iAfp-28" value="" style="endArrow=none;html=1;rounded=0;strokeWidth=3;edgeStyle=orthogonalEdgeStyle;exitX=0;exitY=0.75;exitDx=0;exitDy=0;exitPerimeter=0;shadow=1;" parent="1KDJxvMvkZy1IDM3iAfp-6" source="1KDJxvMvkZy1IDM3iAfp-27" edge="1">
          <mxGeometry width="50" height="50" relative="1" as="geometry">
            <mxPoint x="344.99" y="250" as="sourcePoint" />
            <mxPoint x="299.99" y="234" as="targetPoint" />
            <Array as="points">
              <mxPoint x="327" y="241" />
              <mxPoint x="300" y="241" />
            </Array>
          </mxGeometry>
        </mxCell>
        <mxCell id="1KDJxvMvkZy1IDM3iAfp-29" value="" style="verticalLabelPosition=bottom;shadow=1;dashed=0;align=center;html=1;verticalAlign=top;shape=mxgraph.electrical.logic_gates.logic_gate;operation=xor;negating=1;negSize=0.15;strokeWidth=3;direction=south;" parent="1KDJxvMvkZy1IDM3iAfp-6" vertex="1">
          <mxGeometry x="327" y="20" width="60" height="100" as="geometry" />
        </mxCell>
        <mxCell id="1KDJxvMvkZy1IDM3iAfp-30" value="" style="verticalLabelPosition=bottom;shadow=1;dashed=0;align=center;html=1;verticalAlign=top;shape=mxgraph.electrical.logic_gates.logic_gate;operation=xor;negating=1;negSize=0.15;strokeWidth=3;direction=south;" parent="1KDJxvMvkZy1IDM3iAfp-6" vertex="1">
          <mxGeometry x="423" y="20" width="60" height="100" as="geometry" />
        </mxCell>
        <mxCell id="1KDJxvMvkZy1IDM3iAfp-31" value="" style="endArrow=none;html=1;rounded=0;strokeWidth=3;entryX=0;entryY=0.25;entryDx=0;entryDy=0;entryPerimeter=0;edgeStyle=orthogonalEdgeStyle;shadow=1;" parent="1KDJxvMvkZy1IDM3iAfp-6" target="1KDJxvMvkZy1IDM3iAfp-27" edge="1">
          <mxGeometry width="50" height="50" relative="1" as="geometry">
            <mxPoint x="357" y="120" as="sourcePoint" />
            <mxPoint x="356.71000000000004" y="250" as="targetPoint" />
          </mxGeometry>
        </mxCell>
        <mxCell id="1KDJxvMvkZy1IDM3iAfp-32" value="" style="verticalLabelPosition=bottom;shadow=1;dashed=0;align=center;html=1;verticalAlign=top;shape=mxgraph.electrical.logic_gates.logic_gate;operation=xor;negating=1;negSize=0.15;strokeWidth=3;direction=south;" parent="1KDJxvMvkZy1IDM3iAfp-6" vertex="1">
          <mxGeometry x="408" y="141" width="60" height="100" as="geometry" />
        </mxCell>
        <mxCell id="1KDJxvMvkZy1IDM3iAfp-33" value="" style="endArrow=none;html=1;rounded=0;strokeWidth=3;exitX=1;exitY=0.5;exitDx=0;exitDy=0;exitPerimeter=0;entryX=0.09;entryY=0.25;entryDx=0;entryDy=0;entryPerimeter=0;shadow=1;" parent="1KDJxvMvkZy1IDM3iAfp-6" source="1KDJxvMvkZy1IDM3iAfp-30" target="1KDJxvMvkZy1IDM3iAfp-32" edge="1">
          <mxGeometry width="50" height="50" relative="1" as="geometry">
            <mxPoint x="348" y="130" as="sourcePoint" />
            <mxPoint x="453" y="140" as="targetPoint" />
          </mxGeometry>
        </mxCell>
        <mxCell id="1KDJxvMvkZy1IDM3iAfp-34" value="" style="endArrow=none;html=1;rounded=0;strokeWidth=3;edgeStyle=orthogonalEdgeStyle;exitX=0;exitY=0.75;exitDx=0;exitDy=0;exitPerimeter=0;entryX=0;entryY=0.25;entryDx=0;entryDy=0;entryPerimeter=0;shadow=1;" parent="1KDJxvMvkZy1IDM3iAfp-6" source="1KDJxvMvkZy1IDM3iAfp-32" target="1KDJxvMvkZy1IDM3iAfp-22" edge="1">
          <mxGeometry width="50" height="50" relative="1" as="geometry">
            <mxPoint x="404.99" y="126" as="sourcePoint" />
            <mxPoint x="359.99" y="110" as="targetPoint" />
            <Array as="points">
              <mxPoint x="423" y="130" />
              <mxPoint x="315" y="130" />
            </Array>
          </mxGeometry>
        </mxCell>
        <mxCell id="1KDJxvMvkZy1IDM3iAfp-35" value="" style="endArrow=none;html=1;rounded=0;strokeWidth=3;exitX=0.986;exitY=0.5;exitDx=0;exitDy=0;exitPerimeter=0;shadow=1;" parent="1KDJxvMvkZy1IDM3iAfp-6" source="1KDJxvMvkZy1IDM3iAfp-32" edge="1">
          <mxGeometry width="50" height="50" relative="1" as="geometry">
            <mxPoint x="437.71000000000004" y="241" as="sourcePoint" />
            <mxPoint x="438" y="310" as="targetPoint" />
          </mxGeometry>
        </mxCell>
        <mxCell id="1KDJxvMvkZy1IDM3iAfp-36" value="" style="endArrow=none;html=1;rounded=0;strokeWidth=3;edgeStyle=orthogonalEdgeStyle;exitX=0;exitY=0.75;exitDx=0;exitDy=0;exitPerimeter=0;entryX=0;entryY=0.25;entryDx=0;entryDy=0;entryPerimeter=0;shadow=1;" parent="1KDJxvMvkZy1IDM3iAfp-6" source="1KDJxvMvkZy1IDM3iAfp-30" edge="1">
          <mxGeometry width="50" height="50" relative="1" as="geometry">
            <mxPoint x="517" y="25" as="sourcePoint" />
            <mxPoint x="372" y="20" as="targetPoint" />
            <Array as="points">
              <mxPoint x="438" y="14" />
              <mxPoint x="372" y="14" />
            </Array>
          </mxGeometry>
        </mxCell>
        <mxCell id="1KDJxvMvkZy1IDM3iAfp-37" value="" style="endArrow=none;html=1;rounded=0;strokeWidth=3;entryX=0.09;entryY=0.25;entryDx=0;entryDy=0;entryPerimeter=0;shadow=1;" parent="1KDJxvMvkZy1IDM3iAfp-6" edge="1">
          <mxGeometry width="50" height="50" relative="1" as="geometry">
            <mxPoint x="413" as="sourcePoint" />
            <mxPoint x="413" y="15" as="targetPoint" />
          </mxGeometry>
        </mxCell>
        <mxCell id="1KDJxvMvkZy1IDM3iAfp-38" value="" style="endArrow=none;html=1;rounded=0;strokeWidth=3;entryX=0.09;entryY=0.25;entryDx=0;entryDy=0;entryPerimeter=0;shadow=1;" parent="1KDJxvMvkZy1IDM3iAfp-6" edge="1">
          <mxGeometry width="50" height="50" relative="1" as="geometry">
            <mxPoint x="342" as="sourcePoint" />
            <mxPoint x="341.9200000000001" y="20" as="targetPoint" />
          </mxGeometry>
        </mxCell>
        <mxCell id="1KDJxvMvkZy1IDM3iAfp-39" value="" style="endArrow=none;html=1;rounded=0;strokeWidth=3;entryX=0.09;entryY=0.25;entryDx=0;entryDy=0;entryPerimeter=0;shadow=1;" parent="1KDJxvMvkZy1IDM3iAfp-6" edge="1">
          <mxGeometry width="50" height="50" relative="1" as="geometry">
            <mxPoint x="468.0799999999999" as="sourcePoint" />
            <mxPoint x="468" y="20" as="targetPoint" />
          </mxGeometry>
        </mxCell>
        <mxCell id="1KDJxvMvkZy1IDM3iAfp-40" value="" style="endArrow=none;html=1;rounded=0;strokeWidth=3;entryX=0.09;entryY=0.25;entryDx=0;entryDy=0;entryPerimeter=0;shadow=1;" parent="1KDJxvMvkZy1IDM3iAfp-6" edge="1">
          <mxGeometry width="50" height="50" relative="1" as="geometry">
            <mxPoint x="206.07999999999993" as="sourcePoint" />
            <mxPoint x="206" y="20" as="targetPoint" />
          </mxGeometry>
        </mxCell>
        <mxCell id="1KDJxvMvkZy1IDM3iAfp-41" value="" style="endArrow=none;html=1;rounded=0;strokeWidth=3;entryX=0.09;entryY=0.25;entryDx=0;entryDy=0;entryPerimeter=0;shadow=1;" parent="1KDJxvMvkZy1IDM3iAfp-6" edge="1">
          <mxGeometry width="50" height="50" relative="1" as="geometry">
            <mxPoint x="236.07999999999993" as="sourcePoint" />
            <mxPoint x="236" y="20" as="targetPoint" />
          </mxGeometry>
        </mxCell>
        <mxCell id="1KDJxvMvkZy1IDM3iAfp-42" value="" style="endArrow=none;html=1;rounded=0;strokeWidth=3;entryX=0.09;entryY=0.25;entryDx=0;entryDy=0;entryPerimeter=0;shadow=1;" parent="1KDJxvMvkZy1IDM3iAfp-6" edge="1">
          <mxGeometry width="50" height="50" relative="1" as="geometry">
            <mxPoint x="168" as="sourcePoint" />
            <mxPoint x="168" y="40" as="targetPoint" />
          </mxGeometry>
        </mxCell>
        <mxCell id="1KDJxvMvkZy1IDM3iAfp-43" value="" style="endArrow=none;html=1;rounded=0;strokeWidth=3;shadow=1;" parent="1KDJxvMvkZy1IDM3iAfp-6" edge="1">
          <mxGeometry width="50" height="50" relative="1" as="geometry">
            <mxPoint x="182.95000000000005" y="240" as="sourcePoint" />
            <mxPoint x="182.95000000000005" y="230" as="targetPoint" />
            <Array as="points">
              <mxPoint x="182.95000000000005" y="240" />
            </Array>
          </mxGeometry>
        </mxCell>
        <mxCell id="1KDJxvMvkZy1IDM3iAfp-44" value="" style="endArrow=none;html=1;rounded=0;strokeWidth=3;edgeStyle=orthogonalEdgeStyle;exitX=1;exitY=0.5;exitDx=0;exitDy=0;exitPerimeter=0;entryX=0;entryY=0.25;entryDx=0;entryDy=0;entryPerimeter=0;shadow=1;" parent="1KDJxvMvkZy1IDM3iAfp-6" source="1KDJxvMvkZy1IDM3iAfp-27" target="1KDJxvMvkZy1IDM3iAfp-24" edge="1">
          <mxGeometry width="50" height="50" relative="1" as="geometry">
            <mxPoint x="357.01" y="370" as="sourcePoint" />
            <mxPoint x="330" y="354" as="targetPoint" />
            <Array as="points">
              <mxPoint x="342" y="361" />
              <mxPoint x="330" y="361" />
            </Array>
          </mxGeometry>
        </mxCell>
        <mxCell id="1KDJxvMvkZy1IDM3iAfp-45" value="" style="endArrow=none;html=1;rounded=0;strokeWidth=3;shadow=1;" parent="1KDJxvMvkZy1IDM3iAfp-6" edge="1">
          <mxGeometry width="50" height="50" relative="1" as="geometry">
            <mxPoint x="28.5" y="350" as="sourcePoint" />
            <mxPoint x="75.5" y="350" as="targetPoint" />
          </mxGeometry>
        </mxCell>
        <mxCell id="1KDJxvMvkZy1IDM3iAfp-46" value="" style="endArrow=none;html=1;rounded=0;strokeWidth=3;shadow=1;" parent="1KDJxvMvkZy1IDM3iAfp-6" edge="1">
          <mxGeometry width="50" height="50" relative="1" as="geometry">
            <mxPoint x="102.5" y="350" as="sourcePoint" />
            <mxPoint x="162.5" y="350" as="targetPoint" />
          </mxGeometry>
        </mxCell>
        <mxCell id="1KDJxvMvkZy1IDM3iAfp-47" value="" style="endArrow=none;html=1;rounded=0;strokeWidth=3;shadow=1;" parent="1KDJxvMvkZy1IDM3iAfp-6" edge="1">
          <mxGeometry width="50" height="50" relative="1" as="geometry">
            <mxPoint x="29.930000000000064" y="340" as="sourcePoint" />
            <mxPoint x="29.930000000000064" y="350" as="targetPoint" />
          </mxGeometry>
        </mxCell>
        <mxCell id="1KDJxvMvkZy1IDM3iAfp-48" value="" style="endArrow=none;html=1;rounded=0;strokeWidth=3;entryX=0;entryY=0.75;entryDx=0;entryDy=0;entryPerimeter=0;shadow=1;" parent="1KDJxvMvkZy1IDM3iAfp-6" target="1KDJxvMvkZy1IDM3iAfp-13" edge="1">
          <mxGeometry width="50" height="50" relative="1" as="geometry">
            <mxPoint x="74" y="350" as="sourcePoint" />
            <mxPoint x="81.90000000000009" y="363.5" as="targetPoint" />
          </mxGeometry>
        </mxCell>
        <mxCell id="1KDJxvMvkZy1IDM3iAfp-49" value="" style="endArrow=none;html=1;rounded=0;strokeWidth=3;entryX=0;entryY=0.75;entryDx=0;entryDy=0;entryPerimeter=0;shadow=1;" parent="1KDJxvMvkZy1IDM3iAfp-6" edge="1">
          <mxGeometry width="50" height="50" relative="1" as="geometry">
            <mxPoint x="104" y="350" as="sourcePoint" />
            <mxPoint x="104" y="363.5" as="targetPoint" />
          </mxGeometry>
        </mxCell>
        <mxCell id="1KDJxvMvkZy1IDM3iAfp-50" value="" style="endArrow=none;html=1;rounded=0;strokeWidth=3;entryX=0;entryY=0.75;entryDx=0;entryDy=0;entryPerimeter=0;shadow=1;" parent="1KDJxvMvkZy1IDM3iAfp-6" edge="1">
          <mxGeometry width="50" height="50" relative="1" as="geometry">
            <mxPoint x="160.94000000000005" y="336.5" as="sourcePoint" />
            <mxPoint x="160.94000000000005" y="350" as="targetPoint" />
          </mxGeometry>
        </mxCell>
        <mxCell id="1KDJxvMvkZy1IDM3iAfp-51" value="" style="endArrow=none;html=1;rounded=0;strokeWidth=3;entryX=0;entryY=0.75;entryDx=0;entryDy=0;entryPerimeter=0;shadow=1;" parent="1KDJxvMvkZy1IDM3iAfp-6" edge="1">
          <mxGeometry width="50" height="50" relative="1" as="geometry">
            <mxPoint x="315" y="457" as="sourcePoint" />
            <mxPoint x="315" y="469" as="targetPoint" />
          </mxGeometry>
        </mxCell>
        <mxCell id="1KDJxvMvkZy1IDM3iAfp-52" value="" style="endArrow=none;html=1;rounded=0;strokeWidth=3;entryX=0;entryY=0.75;entryDx=0;entryDy=0;entryPerimeter=0;shadow=1;" parent="1" edge="1">
          <mxGeometry width="50" height="50" relative="1" as="geometry">
            <mxPoint x="744" y="493" as="sourcePoint" />
            <mxPoint x="744" y="505" as="targetPoint" />
          </mxGeometry>
        </mxCell>
      </root>
    </mxGraphModel>
  </diagram>
</mxfile>
